<?xml version="1.0" encoding="UTF-8" standalone="no"?>
<svg
   width="5.5882492mm"
   height="6.0418048mm"
   viewBox="0 0 66.002684 71.359617"
   version="1.2"
   id="svg6699"
   sodipodi:docname="buttons_2.27.24.svg"
   inkscape:version="1.2.2 (b0a8486, 2022-12-01)"
   xml:space="preserve"
   inkscape:export-filename="Faces_for_printing_noOutline.png"
   inkscape:export-xdpi="1000"
   inkscape:export-ydpi="1000"
   xmlns:inkscape="http://www.inkscape.org/namespaces/inkscape"
   xmlns:sodipodi="http://sodipodi.sourceforge.net/DTD/sodipodi-0.dtd"
   xmlns="http://www.w3.org/2000/svg"
   xmlns:svg="http://www.w3.org/2000/svg"><sodipodi:namedview
     id="namedview6701"
     pagecolor="#ffffff"
     bordercolor="#000000"
     borderopacity="0.25"
     inkscape:showpageshadow="2"
     inkscape:pageopacity="1"
     inkscape:pagecheckerboard="0"
     inkscape:deskcolor="#d1d1d1"
     inkscape:document-units="mm"
     showgrid="false"
     inkscape:zoom="3.6621963"
     inkscape:cx="466.25027"
     inkscape:cy="175.85076"
     inkscape:window-width="1766"
     inkscape:window-height="1018"
     inkscape:window-x="0"
     inkscape:window-y="25"
     inkscape:window-maximized="0"
     inkscape:current-layer="g40290" /><defs
     id="defs3431" /><g
     id="g40290"
     inkscape:label="Top Face"
     transform="translate(-1462.1454,-539.18616)"
     style="stroke-width:2.95276;stroke-dasharray:none"><g
       id="g75581"
       inkscape:export-filename="../../../Web things/alexlafetra.github.io/stepchild/manual/images/buttons/B.svg"
       inkscape:export-xdpi="1000"
       inkscape:export-ydpi="1000"><path
         style="fill:none;fill-opacity:1;stroke:#000000;stroke-width:2.95276;stroke-linecap:round;stroke-linejoin:round;stroke-dasharray:none;paint-order:stroke fill markers"
         id="path91054"
         sodipodi:type="arc"
         sodipodi:cx="1495.5675"
         sodipodi:cy="-572.61133"
         sodipodi:rx="31.945095"
         sodipodi:ry="31.946161"
         sodipodi:start="0.229964"
         sodipodi:end="4.6874732"
         sodipodi:arc-type="arc"
         d="m 1526.6716,-565.32944 a 31.945095,31.946161 0 0 1 -35.72,24.32901 31.945095,31.946161 0 0 1 -27.2716,-33.52793 31.945095,31.946161 0 0 1 31.0917,-30.01921"
         sodipodi:open="true"
         transform="scale(1,-1)" /><g
         aria-label="B

"
         id="text91060"
         style="font-weight:100;font-size:66.6667px;line-height:0;font-family:'.SF Compact Rounded';-inkscape-font-specification:'.SF Compact Rounded Thin';display:inline;stroke:#000000;stroke-width:1.77165;stroke-linecap:square;paint-order:stroke fill markers"
         inkscape:label="text16038"><path
           d="m 1486.2315,582.90698 4.3721,-20.87811 h 6.4657 q 1.766,0 2.6205,0.14241 1.3956,0.24211 2.3498,0.85449 0.9684,0.59815 1.4954,1.65202 0.5269,1.03964 0.5269,2.30714 0,1.72322 -0.9542,3.03345 -0.9399,1.31022 -2.891,1.99381 1.6947,0.55543 2.535,1.68051 0.8402,1.11084 0.8402,2.6062 0,1.72323 -0.9969,3.30404 -0.9826,1.58081 -2.6204,2.44955 -1.6236,0.85449 -3.6316,0.85449 z m 5.2978,-11.9629 h 4.2298 q 3.0334,0 4.3579,-0.96843 1.3387,-0.96842 1.3387,-2.81983 0,-0.88297 -0.413,-1.52384 -0.413,-0.64087 -1.1108,-0.9257 -0.6836,-0.29907 -2.592,-0.29907 h -4.4434 z m -2.008,9.5988 h 4.7567 q 1.8941,0 2.5492,-0.12817 1.3245,-0.22786 2.1505,-0.76904 0.826,-0.55542 1.296,-1.45264 0.4699,-0.89722 0.4699,-1.87989 0,-1.46688 -0.9257,-2.22168 -0.9114,-0.76904 -3.4892,-0.76904 h -5.2978 z"
           style="font-style:italic;font-weight:normal;font-size:29.1667px;line-height:2.36221px;font-family:Arial;-inkscape-font-specification:'Arial, Italic'"
           id="path75583" /></g><path
         style="fill:#000000;fill-opacity:1;stroke:#000000;stroke-width:2.95276;stroke-linecap:round;stroke-linejoin:miter;stroke-dasharray:none;stroke-opacity:1;paint-order:stroke fill markers"
         d="m 1494.7717,604.54755 -12.3365,3.30554 4.058,-4.59884"
         id="path102182"
         sodipodi:nodetypes="ccc" /></g></g></svg>
