<?xml version="1.0" encoding="UTF-8" standalone="no"?>
<!-- Created with Inkscape (http://www.inkscape.org/) -->

<svg
   width="6.6368895mm"
   height="6.5718284mm"
   viewBox="0 0 6.6368895 6.5718284"
   version="1.1"
   id="svg969"
   sodipodi:docname="B_icon.svg"
   inkscape:version="1.2.2 (b0a8486, 2022-12-01)"
   xmlns:inkscape="http://www.inkscape.org/namespaces/inkscape"
   xmlns:sodipodi="http://sodipodi.sourceforge.net/DTD/sodipodi-0.dtd"
   xmlns="http://www.w3.org/2000/svg"
   xmlns:svg="http://www.w3.org/2000/svg">
  <sodipodi:namedview
     id="namedview971"
     pagecolor="#ffffff"
     bordercolor="#000000"
     borderopacity="0.25"
     inkscape:showpageshadow="2"
     inkscape:pageopacity="0"
     inkscape:pagecheckerboard="true"
     inkscape:deskcolor="#d1d1d1"
     inkscape:document-units="mm"
     showgrid="false"
     inkscape:zoom="10.585835"
     inkscape:cx="-9.8716823"
     inkscape:cy="16.956622"
     inkscape:window-width="1792"
     inkscape:window-height="849"
     inkscape:window-x="0"
     inkscape:window-y="25"
     inkscape:window-maximized="0"
     inkscape:current-layer="g45160" />
  <defs
     id="defs966" />
  <g
     inkscape:label="Layer 1"
     inkscape:groupmode="layer"
     id="layer1"
     transform="translate(-93.511413,-92.358154)">
    <rect
       style="display:inline;fill:#ffffff;fill-opacity:1;stroke:#ffffff;stroke-width:2.2;stroke-linecap:round;stroke-linejoin:round;stroke-opacity:1;paint-order:stroke fill markers"
       id="rect1370"
       width="4.4368892"
       height="4.3718281"
       x="94.611412"
       y="93.458153"
       rx="0.1"
       ry="0.1" />
    <g
       id="g45160"
       inkscape:label="Encoder A"
       style="display:inline"
       transform="matrix(0.01693333,0,0,0.01693333,75.698998,90.686974)">
      <path
         style="fill:#000000;fill-opacity:0.00705884;stroke:#000000;stroke-width:5.36978;stroke-linecap:square;stroke-linejoin:round;stroke-dasharray:none;stroke-opacity:1;paint-order:stroke fill markers"
         id="path45154"
         sodipodi:type="arc"
         sodipodi:cx="1247.8455"
         sodipodi:cy="292.75128"
         sodipodi:rx="165.35626"
         sodipodi:ry="165.35626"
         sodipodi:start="3.19116"
         sodipodi:end="2.2459402"
         sodipodi:open="true"
         sodipodi:arc-type="arc"
         d="m 1082.6923,284.55837 a 165.35626,165.35626 0 0 1 134.4541,-154.28866 165.35626,165.35626 0 0 1 181.4782,94.59676 165.35626,165.35626 0 0 1 -49.4817,198.5811 165.35626,165.35626 0 0 1 -204.6467,-1.61637" />
      <g
         aria-label="B

"
         id="text42482"
         style="font-weight:100;font-size:66.6667px;line-height:0;font-family:'.SF Compact Rounded';-inkscape-font-specification:'.SF Compact Rounded Thin';display:inline;fill:#ffffff;fill-opacity:0.0352941;stroke:#000000;stroke-width:2.36221;stroke-linecap:round;stroke-linejoin:round;paint-order:stroke fill markers"
         transform="matrix(1.5154705,0,0,1.5154705,-473.48273,-226.29456)">
        <path
           d="m 1105.2976,378.2829 14.9902,-71.58196 h 22.168 q 6.0547,0 8.9843,0.48828 4.7852,0.83008 8.0567,2.92968 3.3203,2.05078 5.1269,5.66406 1.8067,3.56445 1.8067,7.91015 0,5.9082 -3.2715,10.40038 -3.2227,4.49218 -9.9121,6.83593 5.8105,1.90429 8.6914,5.76171 2.8808,3.80859 2.8808,8.93554 0,5.9082 -3.4179,11.32811 -3.3692,5.41992 -8.9844,8.39843 -5.5664,2.92969 -12.4512,2.92969 z m 18.164,-41.01559 h 14.502 q 10.4004,0 14.9414,-3.32031 4.5898,-3.3203 4.5898,-9.66795 0,-3.02735 -1.416,-5.22461 -1.416,-2.19726 -3.8086,-3.17382 -2.3437,-1.02539 -8.8867,-1.02539 h -15.2344 z m -6.8847,32.91013 h 16.3086 q 6.4941,0 8.7402,-0.43946 4.541,-0.78124 7.373,-2.63671 2.8321,-1.9043 4.4434,-4.98047 1.6113,-3.07616 1.6113,-6.4453 0,-5.02929 -3.1738,-7.61718 -3.125,-2.63672 -11.9629,-2.63672 h -18.164 z"
           style="font-style:italic;font-weight:normal;font-size:99.9999px;line-height:2.36221px;font-family:Arial;-inkscape-font-specification:'Arial Bold';fill:#000000;fill-opacity:1"
           id="path444" />
      </g>
    </g>
  </g>
</svg>
